<?xml version="1.0" encoding="utf-8"?>
<!-- Generator: Adobe Illustrator 28.0.0, SVG Export Plug-In . SVG Version: 6.00 Build 0)  -->
<svg version="1.1" id="mail" xmlns="http://www.w3.org/2000/svg" xmlns:xlink="http://www.w3.org/1999/xlink" x="0px" y="0px"
	 viewBox="0 0 4003.9 4003.9" style="enable-background:new 0 0 4003.9 4003.9;" xml:space="preserve">
<style type="text/css">
	.st0{fill:#EBFFFB;}
</style>
<g>
	<path class="st0" d="M2934.6,1248.5H1069.3c-78.1,0-141.4,63.3-141.4,141.4v138c2.7,21.5,14.4,53.6,56.7,74l958.6,484h0h0l6.7,3.2
		c16.2,7,60.2,21.1,110.8-3.2l958.6-484c42.3-20.4,54-52.5,56.7-74v-138C3076.1,1311.8,3012.7,1248.5,2934.6,1248.5z M2108.6,2214.8
		c-33.9,16.3-69.9,24.6-106.8,24.6h0c-32.8,0-60.4-6.5-80.7-13.7h-2l-9.7-4.5c-1.1-0.4-5.3-2.3-5.3-2.3l-967.4-488.1
		c-3-1.4-5.9-3-8.8-4.6v887.8c0,78.1,63.3,141.4,141.4,141.4h1865.3c78.1,0,141.4-63.3,141.4-141.4v-887.8c-2.9,1.5-5.8,3.1-8.8,4.5
		L2108.6,2214.8z"/>
</g>
</svg>
